<svg xmlns="http://www.w3.org/2000/svg" viewBox="0 0 200 280" fill="none">
  <defs>
    <linearGradient id="amberBody" x1="0" y1="0" x2="0" y2="1">
      <stop offset="0%" stop-color="#6b3410"/>
      <stop offset="50%" stop-color="#a05a1f"/>
      <stop offset="100%" stop-color="#4a230b"/>
    </linearGradient>
    <linearGradient id="amberHighlight" x1="0" y1="0" x2="1" y2="0">
      <stop offset="0%" stop-color="#ffffff" stop-opacity="0.45"/>
      <stop offset="40%" stop-color="#ffffff" stop-opacity="0"/>
    </linearGradient>
    <linearGradient id="amberCap" x1="0" y1="0" x2="0" y2="1">
      <stop offset="0%" stop-color="#d4af37"/>
      <stop offset="100%" stop-color="#8a6b1c"/>
    </linearGradient>
  </defs>
  <rect x="86" y="14" width="28" height="22" rx="2" fill="url(#amberCap)"/>
  <rect x="92" y="36" width="16" height="14" fill="#8a6b1c"/>
  <path d="M60 70 Q60 56 100 56 Q140 56 140 70 L150 110 Q160 150 160 200 Q160 254 100 254 Q40 254 40 200 Q40 150 50 110 Z" fill="url(#amberBody)"/>
  <path d="M60 70 Q60 56 100 56 Q140 56 140 70 L150 110 Q160 150 160 200 Q160 254 100 254 Q40 254 40 200 Q40 150 50 110 Z" fill="url(#amberHighlight)"/>
  <rect x="70" y="170" width="60" height="36" rx="3" fill="#f5e6c8" fill-opacity="0.85"/>
  <text x="100" y="186" text-anchor="middle" font-family="Georgia, serif" font-size="11" fill="#6b3410" font-style="italic">Orith</text>
  <text x="100" y="200" text-anchor="middle" font-family="Arial, sans-serif" font-size="6" fill="#6b3410" letter-spacing="1.5">EAU DE PARFUM</text>
</svg>
