<svg xmlns="http://www.w3.org/2000/svg" viewBox="0 0 200 280" fill="none">
  <defs>
    <linearGradient id="roseBody" x1="0" y1="0" x2="0" y2="1">
      <stop offset="0%" stop-color="#f5c6d4"/>
      <stop offset="50%" stop-color="#e08aa2"/>
      <stop offset="100%" stop-color="#a3536d"/>
    </linearGradient>
    <linearGradient id="roseHighlight" x1="0" y1="0" x2="1" y2="0">
      <stop offset="0%" stop-color="#ffffff" stop-opacity="0.55"/>
      <stop offset="40%" stop-color="#ffffff" stop-opacity="0"/>
    </linearGradient>
    <linearGradient id="roseCap" x1="0" y1="0" x2="0" y2="1">
      <stop offset="0%" stop-color="#d4af37"/>
      <stop offset="100%" stop-color="#8a6b1c"/>
    </linearGradient>
  </defs>
  <ellipse cx="100" cy="22" rx="18" ry="10" fill="url(#roseCap)"/>
  <rect x="92" y="30" width="16" height="18" fill="#8a6b1c"/>
  <path d="M70 60 L130 60 L130 80 Q145 110 145 160 Q145 220 100 252 Q55 220 55 160 Q55 110 70 80 Z" fill="url(#roseBody)"/>
  <path d="M70 60 L130 60 L130 80 Q145 110 145 160 Q145 220 100 252 Q55 220 55 160 Q55 110 70 80 Z" fill="url(#roseHighlight)"/>
  <rect x="70" y="150" width="60" height="42" rx="3" fill="#ffffff" fill-opacity="0.85"/>
  <text x="100" y="168" text-anchor="middle" font-family="Georgia, serif" font-size="12" fill="#a3536d" font-style="italic">Orith</text>
  <text x="100" y="184" text-anchor="middle" font-family="Arial, sans-serif" font-size="6" fill="#a3536d" letter-spacing="1.5">EAU DE PARFUM</text>
</svg>
